<svg width="448" height="448" viewBox="0 0 448 448" fill="none" xmlns="http://www.w3.org/2000/svg">
<path fill-rule="evenodd" clip-rule="evenodd" d="M128 0C57.3076 0 0 57.3076 0 128C0 163.346 28.6538 192 64 192C28.6538 192 0 220.654 0 256V384C0 419.346 28.6538 448 64 448H192C227.346 448 256 419.346 256 384C256 348.654 284.654 320 320 320C355.325 320 383.966 348.62 384 383.937V384C384 419.325 355.38 447.966 320.063 448H384C419.346 448 448 419.346 448 384C412.654 384 384 355.346 384 320L384 256V128C384 57.3076 326.692 0 256 0H128ZM256 128.045L256 255.955C255.976 220.63 227.331 192 192 192L64 192C99.3462 192 128 163.346 128 128L128 127.976L128 127.96C128.021 92.6323 156.667 64 192 64C227.336 64 255.983 92.6371 256 127.969C256.017 92.6371 284.664 64 320 64C355.346 64 384 92.6537 384 128C384 163.346 355.346 192 320 192C284.669 192 256.024 163.37 256 128.045ZM384 256C384 291.346 355.346 320 320 320C284.654 320 256 291.346 256 256C256 220.654 284.654 192 320 192C355.346 192 384 220.654 384 256ZM128 384C163.346 384 192 355.346 192 320C192 284.654 163.346 256 128 256C92.6538 256 64 284.654 64 320C64 355.346 92.6538 384 128 384Z" fill="black"/>
</svg>
