<svg xmlns="http://www.w3.org/2000/svg" width="844.51892" height="261.75647" x="0px" y="0px" viewBox="0 0 844.51892 261.75647"><path fill="none" d="M-7.226-6.122h857.379v270.297H-7.227z" style="fill:#060821;fill-opacity:0"/><defs><linearGradient id="a" x1="0" x2="1" y1="0" y2="0" gradientTransform="rotate(-133.568 143.813 107.38)scale(12.87208)" gradientUnits="userSpaceOnUse" spreadMethod="pad"><stop offset="0" style="stop-opacity:1;stop-color:#00c1f3"/><stop offset="1" style="stop-opacity:1;stop-color:#0076c0"/></linearGradient><linearGradient id="d" x1="0" x2="1" y1="0" y2="0" gradientTransform="scale(-12.24147)rotate(48.013 19.583 -25.547)" gradientUnits="userSpaceOnUse" spreadMethod="pad"><stop offset="0" style="stop-opacity:1;stop-color:#00c1f3"/><stop offset="1" style="stop-opacity:1;stop-color:#0076c0"/></linearGradient><linearGradient id="e" x1="0" x2="1" y1="0" y2="0" gradientTransform="rotate(-130.815 135.319 105.393)scale(13.22525)" gradientUnits="userSpaceOnUse" spreadMethod="pad"><stop offset="0" style="stop-opacity:1;stop-color:#00c1f3"/><stop offset="1" style="stop-opacity:1;stop-color:#0076c0"/></linearGradient><clipPath id="b" clipPathUnits="userSpaceOnUse"><path d="M0 544.248h388.348V0H0Z"/></clipPath><clipPath id="c" clipPathUnits="userSpaceOnUse"><path d="M0 544.248h388.348V0H0Z"/></clipPath></defs><path d="m174.914 299.205-6.483-9.726c-.626-.942-2.04-1.092-3.067-1.102h-8.65q-1.33 0-2.378-.931-1.048-.933-1.048-2.249v-.59q0-1.397 1.011-2.279t2.425-.883h6.992q1.213 0 1.213-1.034v-.597q0-.44-.383-.747a1.3 1.3 0 0 0-.826-.309h-10.432v-2.122h10.438q1.33 0 2.379.92 1.046.92 1.046 2.254v.605q0 1.394-1.029 2.304-.99.848-2.406.849h-6.992q-1.212 0-1.213 1.043v.582q0 .42.382.741.384.322.826.322h8.659v.002a8.4 8.4 0 0 1 2.22.28c1.206.335 2.182 1.017 2.819 1.971l5.187 7.727 1.972 2.969z" style="fill:url(#a);stroke:none" transform="matrix(6.791 0 0 -6.791 -896.378 2031.902)"/><g clip-path="url(#b)" transform="matrix(6.791 0 0 -6.791 -896.378 2031.902)"><path d="M0 0q-.045.014-.037.051l.011.132q.006.022.019.031.012.008.029-.003A.8.8 0 0 1 .45.108q.204 0 .336.115a.4.4 0 0 1 .131.321.27.27 0 0 1-.064.165.7.7 0 0 1-.175.157 4 4 0 0 1-.223.131 2 2 0 0 0-.236.149.8.8 0 0 0-.188.183.38.38 0 0 0-.076.235.5.5 0 0 0 .206.415.7.7 0 0 0 .215.106.9.9 0 0 0 .248.037q.11 0 .194-.013t.183-.044q.042-.015.033-.05l-.022-.113q-.009-.048-.048-.025a.6.6 0 0 1-.153.05 1 1 0 0 1-.19.012.6.6 0 0 1-.176-.022.4.4 0 0 1-.143-.068.35.35 0 0 1-.097-.115.34.34 0 0 1-.036-.162q0-.073.049-.139a.7.7 0 0 1 .121-.122q.071-.058.154-.105.084-.046.15-.087a4 4 0 0 0 .181-.111A1 1 0 0 0 .978.88a.6.6 0 0 0 .11-.156.543.543 0 0 0-.169-.639.7.7 0 0 0-.221-.118.8.8 0 0 0-.26-.041q-.123.001-.22.017A2 2 0 0 0 0 0" style="fill:#004282;fill-opacity:1;fill-rule:nonzero;stroke:none" transform="translate(168.831 281.478)"/><path d="M0 0a1 1 0 0 1-.022.208.5.5 0 0 1-.071.165.33.33 0 0 1-.3.168.4.4 0 0 1-.33-.171A.76.76 0 0 1-.844 0Zm-.844-.162a.8.8 0 0 1 .033-.252.5.5 0 0 1 .102-.184.5.5 0 0 1 .162-.114.6.6 0 0 1 .21-.04q.112 0 .21.023a.6.6 0 0 1 .183.068q.036.02.036-.02v-.128q0-.025-.03-.04a1 1 0 0 0-.194-.054 1 1 0 0 0-.219-.02q-.346 0-.523.204t-.178.615q0 .361.178.583.185.225.469.225A.6.6 0 0 0-.132.647a.5.5 0 0 0 .196-.17Q.208.273.208-.064L.207-.123Q.205-.143.197-.15.188-.16.167-.161L.106-.162Z" style="fill:#004282;fill-opacity:1;fill-rule:nonzero;stroke:none" transform="translate(171.266 282.326)"/><path d="M0 0q0 .057.039.098a.13.13 0 0 0 .096.041.13.13 0 0 0 .097-.041A.13.13 0 0 0 .273 0a.13.13 0 0 0-.041-.097.14.14 0 0 0-.097-.04A.134.134 0 0 0 0 0m-.242-2.512q-.04.003-.04.054v.079q0 .035.04.026l.032-.003.038-.001a.24.24 0 0 1 .113.023.2.2 0 0 1 .07.064q.03.062.031.206v1.486q0 .04.039.04h.113q.039 0 .039-.04v-1.507q0-.436-.351-.436a1 1 0 0 0-.124.009" style="fill:#004282;fill-opacity:1;fill-rule:nonzero;stroke:none" transform="translate(171.848 283.528)"/><path d="M0 0q0 .135-.035.251a.8.8 0 0 1-.097.208.47.47 0 0 1-.379.183.5.5 0 0 1-.213-.047.5.5 0 0 1-.167-.136.7.7 0 0 1-.1-.208A.9.9 0 0 1-1.026 0q0-.137.035-.253a.7.7 0 0 1 .1-.205.47.47 0 0 1 .38-.186.45.45 0 0 1 .212.049.5.5 0 0 1 .167.137.7.7 0 0 1 .097.205A.9.9 0 0 1 0 0m.208 0a1 1 0 0 0-.174-.563.7.7 0 0 0-.235-.186.7.7 0 0 0-.31-.065.666.666 0 0 0-.549.251.9.9 0 0 0-.125.251A1 1 0 0 0-1.231 0q0 .345.171.564a.66.66 0 0 0 .549.249A.74.74 0 0 0-.2.75.6.6 0 0 0 .034.564.9.9 0 0 0 .208 0" style="fill:#004282;fill-opacity:1;fill-rule:nonzero;stroke:none" transform="translate(173.616 282.218)"/><path d="M0 0q0-.04-.039-.04h-.113q-.039 0-.039.04v.896q0 .263-.093.373a.32.32 0 0 1-.261.11q-.228 0-.348-.129a.5.5 0 0 1-.119-.358V0q0-.04-.04-.04h-.112q-.039 0-.039.04v1.139l-.001.191-.008.131q-.002.019.01.03t.03.01h.101q.04 0 .04-.04v-.157a.5.5 0 0 0 .189.179.7.7 0 0 0 .305.058q.267 0 .402-.157Q0 1.228 0 .942Z" style="fill:#004282;fill-opacity:1;fill-rule:nonzero;stroke:none" transform="translate(175.353 281.49)"/><path d="M0 0q0 .305-.123.47a.4.4 0 0 1-.335.165q-.228 0-.343-.154-.116-.153-.116-.487 0-.122.034-.224A.6.6 0 0 1-.79-.406.44.44 0 0 1-.649-.52a.4.4 0 0 1 .177-.041.44.44 0 0 1 .336.159.6.6 0 0 1 .099.177A.7.7 0 0 1 0 0m-.967-1.15q-.033.007-.028.043l.008.125q0 .036.037.017a.96.96 0 0 1 .418-.092q.256 0 .385.159.128.159.144.431a.44.44 0 0 0-.191-.194.6.6 0 0 0-.281-.065.607.607 0 0 0-.461.196.7.7 0 0 0-.138.228.8.8 0 0 0-.05.296q0 .191.035.341.034.15.111.252.075.102.196.156a.7.7 0 0 0 .293.054.7.7 0 0 0 .263-.049A.7.7 0 0 0 .005.57L0 .724q0 .039.039.039h.107q.04 0 .04-.039v-1.14Q.186-.6.139-.75a.7.7 0 0 0-.138-.254.6.6 0 0 0-.226-.159.8.8 0 0 0-.309-.056 1.3 1.3 0 0 0-.433.069" style="fill:#004282;fill-opacity:1;fill-rule:nonzero;stroke:none" transform="translate(176.832 282.227)"/><path d="M0 0q-.118.296-.226.586a38 38 0 0 1-.227.585L-.684.586-.917 0Zm.489-.706q.015-.04-.025-.04H.329a.1.1 0 0 0-.03.006q-.012.006-.023.034l-.209.524H-.99l-.104-.262-.101-.262q-.01-.028-.024-.034a.1.1 0 0 0-.029-.006h-.132q-.04 0-.026.04l.827 2.039a.05.05 0 0 0 .05.034h.172a.05.05 0 0 0 .05-.034z" style="fill:#004282;fill-opacity:1;fill-rule:nonzero;stroke:none" transform="translate(179.401 282.195)"/><path d="M0 0a2 2 0 0 0-.351-.025q-.175 0-.311.062a.7.7 0 0 0-.23.171.8.8 0 0 0-.145.256 1 1 0 0 0-.051.319q0 .174.054.321a.72.72 0 0 0 .705.482q.093 0 .169-.007.075-.006.163-.027.039-.01.037-.054l-.009-.091q-.006-.034-.042-.026a.97.97 0 0 1-.29.043.6.6 0 0 1-.251-.047.5.5 0 0 1-.181-.132.6.6 0 0 1-.11-.204.85.85 0 0 1 .001-.503.7.7 0 0 1 .11-.206.6.6 0 0 1 .174-.143.5.5 0 0 1 .235-.051q.098 0 .163.008a1 1 0 0 1 .146.031Q.028.19.031.157L.04.052Q.042.009 0 0" style="fill:#004282;fill-opacity:1;fill-rule:nonzero;stroke:none" transform="translate(181.139 281.438)"/><path d="M0 0h-.053a1.5 1.5 0 0 1-.28-.014 1 1 0 0 1-.204-.049.36.36 0 0 1-.177-.127.34.34 0 0 1-.059-.201.4.4 0 0 1 .023-.132.2.2 0 0 1 .07-.095.34.34 0 0 1 .225-.07.4.4 0 0 1 .325.155q.063.074.096.183A.9.9 0 0 1 0-.098Zm-.801.497Q-.816.489-.828.493q-.013.005-.013.02V.62q0 .04.04.061.098.053.209.075t.243.02q.282 0 .411-.134t.129-.41v-.713a4 4 0 0 1 .011-.283q0-.04-.039-.04H.062q-.04 0-.04.04v.219A.44.44 0 0 0-.176-.77a.6.6 0 0 0-.302-.08q-.284 0-.416.168a.4.4 0 0 0-.068.133.5.5 0 0 0-.022.15q0 .174.08.298a.5.5 0 0 0 .246.189q.203.074.621.073H0v.086q0 .178-.08.274-.08.094-.269.093A1 1 0 0 1-.588.588.7.7 0 0 1-.801.497" style="fill:#004282;fill-opacity:1;fill-rule:nonzero;stroke:none" transform="translate(182.333 282.253)"/><path d="M0 0q0-.134.021-.243a.7.7 0 0 1 .066-.193.46.46 0 0 1 .151-.156.4.4 0 0 1 .212-.054q.113 0 .198.059a.5.5 0 0 1 .144.153.7.7 0 0 1 .085.207 1.013 1.013 0 0 1-.001.481.7.7 0 0 1-.087.202.392.392 0 0 1-.339.183Q.21.639.087.431A.7.7 0 0 1 .021.238 1.3 1.3 0 0 1 0 0m1.094-.731q0-.041-.04-.04H.945q-.04-.001-.04.04v.212a.51.51 0 0 0-.489-.29.55.55 0 0 0-.469.235Q-.208-.358-.208 0q0 .801.624.801A.64.64 0 0 0 .715.732a.43.43 0 0 0 .19-.176v.897q0 .039.04.039h.109q.04 0 .04-.039z" style="fill:#004282;fill-opacity:1;fill-rule:nonzero;stroke:none" transform="translate(183.067 282.22)"/><path d="M0 0a1 1 0 0 1-.023.208.5.5 0 0 1-.07.165.33.33 0 0 1-.3.168.4.4 0 0 1-.33-.171A.8.8 0 0 1-.844 0Zm-.844-.162a.8.8 0 0 1 .033-.252.5.5 0 0 1 .102-.184.5.5 0 0 1 .162-.114.6.6 0 0 1 .21-.04q.112 0 .21.023a.6.6 0 0 1 .183.068q.037.02.037-.02v-.128q0-.025-.031-.04a1 1 0 0 0-.194-.054 1 1 0 0 0-.219-.02q-.346 0-.523.204t-.178.615q0 .361.178.583.185.225.469.225A.6.6 0 0 0-.132.647a.5.5 0 0 0 .196-.17Q.208.273.208-.064L.207-.123Q.205-.143.197-.15.188-.16.167-.161L.106-.162Z" style="fill:#004282;fill-opacity:1;fill-rule:nonzero;stroke:none" transform="translate(185.53 282.326)"/><path d="M0 0a5 5 0 0 1-.011.322q0 .04.04.04h.103q.04 0 .04-.04V.168q.065.105.174.167.11.06.27.061A.53.53 0 0 0 .911.313a.36.36 0 0 0 .155-.247q.058.162.19.247a.55.55 0 0 0 .302.083.46.46 0 0 0 .35-.15.5.5 0 0 0 .097-.163.6.6 0 0 0 .033-.199v-1.023q0-.04-.039-.04h-.107q-.039 0-.039.037v.986q0 .39-.324.39a.33.33 0 0 1-.175-.045.4.4 0 0 1-.132-.121.5.5 0 0 1-.082-.178.8.8 0 0 1-.024-.217v-.812q0-.04-.039-.04H.965q-.04 0-.04.04v.983q0 .39-.326.39A.38.38 0 0 1 .298.108a.48.48 0 0 1-.109-.33v-.917q0-.04-.04-.04H.04q-.04 0-.04.04Z" style="fill:#004282;fill-opacity:1;fill-rule:nonzero;stroke:none" transform="translate(186.07 282.628)"/><path d="M0 0q-.034.01-.028.043l.008.098q0 .033.034.018A.3.3 0 0 1 .118.143q.06 0 .109.018a.2.2 0 0 1 .074.05.6.6 0 0 1 .069.132q.038.09.074.207l-.25.686-.25.687a.03.03 0 0 0 0 .027q.006.012.022.012h.132q.04 0 .057-.039L.534.817l.199.554.197.552q.015.039.057.039h.121q.017 0 .022-.012a.03.03 0 0 0 0-.027L.546.333A1 1 0 0 0 .477.186.6.6 0 0 0 .4.08a.35.35 0 0 0-.242-.097l-.076.003A1 1 0 0 0 0 0" style="fill:#004282;fill-opacity:1;fill-rule:nonzero;stroke:none" transform="translate(188.434 281.027)"/><path d="M0 0q0 .135-.035.251a.8.8 0 0 1-.097.208.47.47 0 0 1-.379.183.5.5 0 0 1-.213-.047.5.5 0 0 1-.167-.136.7.7 0 0 1-.1-.208A.9.9 0 0 1-1.026 0q0-.137.035-.253a.7.7 0 0 1 .1-.205.47.47 0 0 1 .38-.186.45.45 0 0 1 .212.049.5.5 0 0 1 .167.137.7.7 0 0 1 .097.205A.9.9 0 0 1 0 0m.208 0a1 1 0 0 0-.174-.563.7.7 0 0 0-.235-.186.7.7 0 0 0-.31-.065.675.675 0 0 0-.549.251.9.9 0 0 0-.125.251A1 1 0 0 0-1.231 0q0 .345.171.564a.66.66 0 0 0 .549.249A.74.74 0 0 0-.2.75.6.6 0 0 0 .034.564.9.9 0 0 0 .208 0" style="fill:#004282;fill-opacity:1;fill-rule:nonzero;stroke:none" transform="translate(191.656 282.218)"/><path d="M0 0q.037-.01.034-.061L.028-.143Q.026-.159.014-.164q-.011-.004-.025.002-.031.011-.056.016-.026.002-.06.003-.165 0-.213-.168a1.4 1.4 0 0 1-.02-.301v-.137h.31q.039 0 .039-.04v-.085q0-.04-.039-.04h-.31V-2.25q0-.04-.039-.04h-.11q-.039 0-.039.04v1.336h-.273q-.039 0-.039.04v.085q0 .04.039.04h.273v.117q0 .31.056.446.087.207.349.206A.5.5 0 0 0 0 0" style="fill:#004282;fill-opacity:1;fill-rule:nonzero;stroke:none" transform="translate(192.87 283.74)"/><path d="M0 0q-.045.014-.037.051l.011.131q.006.023.019.031T.022.21A.85.85 0 0 1 .45.108q.204 0 .336.114a.4.4 0 0 1 .131.322q0 .083-.064.165a.7.7 0 0 1-.175.157Q.579.928.455.997a2 2 0 0 0-.236.149.9.9 0 0 0-.188.182.38.38 0 0 0-.076.235.5.5 0 0 0 .056.241.55.55 0 0 0 .15.175.8.8 0 0 0 .215.106.9.9 0 0 0 .248.037q.11 0 .194-.013t.183-.044q.042-.015.033-.052l-.022-.111q-.009-.048-.048-.025a.6.6 0 0 1-.153.049q-.075.013-.19.013a.7.7 0 0 1-.176-.022.4.4 0 0 1-.143-.069.34.34 0 0 1-.097-.114.34.34 0 0 1-.036-.162.23.23 0 0 1 .049-.14.7.7 0 0 1 .121-.122q.071-.057.154-.104.084-.046.15-.087a4 4 0 0 0 .181-.111A1 1 0 0 0 .978.88a.7.7 0 0 0 .11-.157.537.537 0 0 0-.016-.45.6.6 0 0 0-.153-.188.7.7 0 0 0-.221-.118.8.8 0 0 0-.26-.041A1.2 1.2 0 0 0 0 0" style="fill:#004282;fill-opacity:1;fill-rule:nonzero;stroke:none" transform="translate(168.831 278.416)"/><path d="M0 0a2 2 0 0 0-.351-.026.7.7 0 0 0-.311.063.65.65 0 0 0-.23.171.8.8 0 0 0-.145.256 1 1 0 0 0-.051.319q0 .174.053.321a.717.717 0 0 0 .393.421.8.8 0 0 0 .313.061q.093 0 .169-.007a1 1 0 0 0 .163-.027q.039-.011.037-.054l-.009-.091q-.006-.034-.042-.026a1 1 0 0 1-.29.043.6.6 0 0 1-.251-.047.5.5 0 0 1-.181-.132.6.6 0 0 1-.11-.204.85.85 0 0 1 .001-.503.7.7 0 0 1 .11-.206.511.511 0 0 1 .409-.196q.098 0 .163.009t.146.031Q.028.188.031.157L.04.051Q.042.009 0 0" style="fill:#004282;fill-opacity:1;fill-rule:nonzero;stroke:none" transform="translate(171.302 278.376)"/><path d="M0 0h-.123q-.04.001-.04.04v1.461q0 .04.04.04H0q.04 0 .04-.04V.04Q.04.001 0 0m-.2 2.08q0 .055.04.099a.13.13 0 0 0 .095.041q.057-.001.097-.041a.14.14 0 0 0 .041-.099.13.13 0 0 0-.041-.097.13.13 0 0 0-.097-.04.13.13 0 0 0-.095.04.13.13 0 0 0-.04.097" style="fill:#004282;fill-opacity:1;fill-rule:nonzero;stroke:none" transform="translate(171.791 278.387)"/><path d="M0 0a1 1 0 0 1-.023.208.5.5 0 0 1-.07.165.34.34 0 0 1-.301.168A.4.4 0 0 1-.723.37.8.8 0 0 1-.844 0Zm-.844-.162a.8.8 0 0 1 .033-.252.451.451 0 0 1 .264-.298.5.5 0 0 1 .21-.04 1 1 0 0 1 .21.022.6.6 0 0 1 .183.069q.036.018.036-.021V-.81q0-.024-.03-.039a1 1 0 0 0-.194-.055 1 1 0 0 0-.219-.018q-.346 0-.523.202-.178.205-.178.615 0 .362.178.583a.58.58 0 0 0 .469.226.6.6 0 0 0 .273-.058.5.5 0 0 0 .196-.17Q.208.274.208-.065L.207-.122Q.205-.144.197-.151.188-.16.167-.161L.106-.162Z" style="fill:#004282;fill-opacity:1;fill-rule:nonzero;stroke:none" transform="translate(173.194 279.265)"/><path d="M0 0q0-.039-.039-.04h-.113q-.039.001-.039.04v.897q0 .262-.093.373a.33.33 0 0 1-.261.109q-.228 0-.348-.129a.5.5 0 0 1-.119-.357V0q0-.039-.04-.04h-.112q-.039.001-.039.04v1.14l-.001.19-.008.131q-.002.021.01.03.013.01.03.01h.101q.04 0 .04-.04v-.155q.078.121.189.178a.7.7 0 0 0 .305.057q.267 0 .402-.156Q0 1.228 0 .943Z" style="fill:#004282;fill-opacity:1;fill-rule:nonzero;stroke:none" transform="translate(174.934 278.427)"/><path d="M0 0a2 2 0 0 0-.351-.026.7.7 0 0 0-.311.063.65.65 0 0 0-.23.171.8.8 0 0 0-.145.256 1 1 0 0 0-.051.319q0 .174.053.321a.717.717 0 0 0 .393.421.8.8 0 0 0 .313.061q.093 0 .169-.007a1 1 0 0 0 .163-.027q.039-.011.037-.054l-.009-.091q-.006-.034-.042-.026a1 1 0 0 1-.29.043.6.6 0 0 1-.251-.047.5.5 0 0 1-.181-.132.6.6 0 0 1-.11-.204.85.85 0 0 1 .001-.503.7.7 0 0 1 .11-.206.511.511 0 0 1 .409-.196q.098 0 .163.009t.146.031Q.028.188.031.157L.04.051Q.042.009 0 0" style="fill:#004282;fill-opacity:1;fill-rule:nonzero;stroke:none" transform="translate(176.353 278.376)"/><path d="M0 0a1 1 0 0 1-.023.208.5.5 0 0 1-.07.165.34.34 0 0 1-.301.168A.4.4 0 0 1-.723.37.8.8 0 0 1-.844 0Zm-.844-.162a.8.8 0 0 1 .033-.252.451.451 0 0 1 .264-.298.5.5 0 0 1 .21-.04 1 1 0 0 1 .21.022.6.6 0 0 1 .183.069q.036.018.036-.021V-.81q0-.024-.03-.039a1 1 0 0 0-.194-.055 1 1 0 0 0-.219-.018q-.346 0-.523.202-.178.205-.178.615 0 .362.178.583a.58.58 0 0 0 .469.226.6.6 0 0 0 .273-.058.5.5 0 0 0 .196-.17Q.208.274.208-.065L.207-.122Q.205-.144.197-.151.188-.16.167-.161L.106-.162Z" style="fill:#004282;fill-opacity:1;fill-rule:nonzero;stroke:none" transform="translate(177.622 279.265)"/><path d="M0 0h-.053a1.5 1.5 0 0 1-.28-.013 1 1 0 0 1-.204-.05.36.36 0 0 1-.177-.126.35.35 0 0 1-.059-.201q0-.071.023-.132a.2.2 0 0 1 .07-.096.34.34 0 0 1 .225-.069q.098 0 .181.041a.4.4 0 0 1 .145.113.5.5 0 0 1 .095.184A.9.9 0 0 1 0-.097Zm-.801.498Q-.816.49-.828.494q-.013.005-.013.018v.109q0 .039.04.06a.7.7 0 0 0 .209.075q.112.022.243.021.282 0 .411-.134.129-.136.129-.41V-.48a4 4 0 0 1 .011-.283q0-.04-.039-.04H.062q-.039 0-.039.04v.219a.45.45 0 0 0-.199-.225.6.6 0 0 0-.302-.08q-.284 0-.416.168a.4.4 0 0 0-.068.133.5.5 0 0 0-.022.15q0 .173.08.298a.5.5 0 0 0 .246.188q.203.074.621.074H0v.086q0 .179-.08.273t-.269.094q-.126 0-.239-.027a.7.7 0 0 1-.213-.09" style="fill:#004282;fill-opacity:1;fill-rule:nonzero;stroke:none" transform="translate(179.755 279.19)"/><path d="M0 0q0-.039-.039-.04h-.113q-.039.001-.039.04v.897q0 .262-.093.373a.33.33 0 0 1-.261.109q-.228 0-.348-.129a.5.5 0 0 1-.119-.357V0q0-.039-.04-.04h-.112q-.039.001-.039.04v1.14l-.001.19-.008.131q-.002.021.01.03.013.01.03.01h.101q.04 0 .04-.04v-.155q.078.121.189.178a.7.7 0 0 0 .305.057q.267 0 .402-.156Q0 1.228 0 .943Z" style="fill:#004282;fill-opacity:1;fill-rule:nonzero;stroke:none" transform="translate(181.569 278.427)"/><path d="M0 0q0-.134.021-.244a.7.7 0 0 1 .066-.192.45.45 0 0 1 .151-.156.4.4 0 0 1 .212-.055q.113 0 .198.06t.144.153a.7.7 0 0 1 .085.207 1.01 1.01 0 0 1-.001.48.7.7 0 0 1-.087.203.4.4 0 0 1-.142.133.4.4 0 0 1-.197.049A.4.4 0 0 1 .087.43.7.7 0 0 1 .021.238 1.3 1.3 0 0 1 0 0m1.094-.732q0-.04-.04-.04H.945q-.04 0-.04.04v.214a.51.51 0 0 0-.489-.291.54.54 0 0 0-.469.234Q-.208-.359-.208 0q0 .8.624.8a.64.64 0 0 0 .3-.068.44.44 0 0 0 .189-.177v.898q0 .039.04.039h.109q.04 0 .04-.039z" style="fill:#004282;fill-opacity:1;fill-rule:nonzero;stroke:none" transform="translate(182.137 279.16)"/><path d="M0 0q-.118.296-.226.585t-.227.586L-.684.585-.916 0Zm.489-.706q.015-.04-.025-.04H.329a.1.1 0 0 0-.03.005q-.012.006-.023.035l-.209.523H-.99l-.104-.261-.101-.262q-.01-.03-.024-.035a.1.1 0 0 0-.029-.005h-.132q-.04 0-.026.04l.827 2.039a.05.05 0 0 0 .05.033h.172a.05.05 0 0 0 .05-.033z" style="fill:#004282;fill-opacity:1;fill-rule:nonzero;stroke:none" transform="translate(185.617 279.134)"/><path d="M0 0a.5.5 0 0 1-.135.017q-.209 0-.309-.208a.95.95 0 0 1-.079-.416v-.72q0-.04-.04-.04h-.109q-.04 0-.04.04v1.155l-.001.167-.004.139q0 .039.039.04h.104q.04-.001.04-.04v-.28q.137.36.405.36A.5.5 0 0 0 0 .196.1.1 0 0 0 .029.178.05.05 0 0 0 .042.142v-.12A.02.02 0 0 0 .028 0 .03.03 0 0 0 0 0" style="fill:#004282;fill-opacity:1;fill-rule:nonzero;stroke:none" transform="translate(187.093 279.755)"/><path d="M0 0a.7.7 0 0 0-.233-.043q-.228 0-.301.15-.048.104-.048.363v.908h-.264q-.039 0-.039.04v.086q0 .04.039.04h.264v.384q0 .043.037.043h.118q.036 0 .036-.043v-.384h.313q.039 0 .039-.04v-.086q0-.04-.039-.04h-.313V.373q0-.254.203-.254.078 0 .177.034a.03.03 0 0 0 .027 0Q.028.147.028.131L.034.057Q.039.017 0 0" style="fill:#004282;fill-opacity:1;fill-rule:nonzero;stroke:none" transform="translate(188.052 278.385)"/><path d="M0 0a.9.9 0 0 1 .354-.071.4.4 0 0 1 .25.075Q.703.08.703.208a.24.24 0 0 1-.055.145.5.5 0 0 1-.133.114L.336.561Q.244.604.16.652a.4.4 0 0 0-.149.141.35.35 0 0 0-.048.175q0 .107.04.186a.425.425 0 0 0 .264.213.7.7 0 0 0 .191.027 1.2 1.2 0 0 0 .343-.046.1.1 0 0 0 .029-.018q.013-.011.01-.031l-.008-.086Q.829 1.19.815 1.186a.03.03 0 0 0-.028 0 1 1 0 0 1-.14.034q-.071.011-.169.01-.326.001-.326-.262 0-.056.043-.108A.5.5 0 0 1 .343.758Q.433.712.52.671T.708.572A.426.426 0 0 0 .911.208.4.4 0 0 0 .866.011a.4.4 0 0 0-.121-.136.6.6 0 0 0-.174-.082.8.8 0 0 0-.203-.025q-.061 0-.111.002a1 1 0 0 0-.093.008q-.043.005-.088.014Q.031-.2-.02-.185q-.039.014-.036.051l.011.105Q-.04.017 0 0" style="fill:#004282;fill-opacity:1;fill-rule:nonzero;stroke:none" transform="translate(188.232 278.575)"/><path d="m0 0-.144-.008c-1.407 0-2.413.433-3.264 1.406L-10.64 9.68l-1.231-1.854L-5.166.052a5.8 5.8 0 0 1 2.201-1.56c.796-.335 1.794-.53 2.968-.582l.149-.007V.011z" style="fill:#004282;fill-opacity:1;fill-rule:nonzero;stroke:none" transform="translate(187.216 288.451)"/></g><g clip-path="url(#c)" transform="matrix(6.791 0 0 -6.791 -896.378 2031.902)"><path d="M160.698 261.073h-1.534v10.464h1.534zm-2.235.123h-1.48v6.211h-1.534v1.176h1.534v2.955h1.48zm-1.945 3.303-.852-.896q-.552.392-1.092 1.203t-.679 1.495q-.142-.694-.682-1.489-.538-.796-1.188-1.264l-.853.884q1.102 1.007 1.512 2.249.357 1.096.358 3.066v1.656h1.64v-1.656q.001-1.892.389-3.077a4.97 4.97 0 0 1 1.447-2.171" style="fill:#004282;fill-opacity:1;fill-rule:nonzero;stroke:none"/><path d="M0 0q0 .493-.389.822-.388.332-1.069.331-.68.001-1.069-.331A1.03 1.03 0 0 1-2.916 0q0-.491.378-.806.399-.345 1.08-.346.681 0 1.08.346Q0-.492 0 0m1.652 0q0-1.04-.788-1.655-.831-.627-2.322-.627t-2.322.627Q-4.569-1.04-4.569 0t.789 1.656q.831.627 2.322.627t2.322-.627q.789-.615.788-1.656m1.027 5.696L2.376 4.6a6.5 6.5 0 0 0-2.225.559q-1.166.503-1.576 1.142-.4-.65-1.502-1.118A8 8 0 0 0-5.271 4.6l-.324 1.107q2.755.405 3.132 1.735h-2.764v1.13h7.528v-1.13H-.454Q0 6.076 2.679 5.696m.799-2.999h-9.872v1.13h4.072v1.254h1.728V3.827h4.072z" style="fill:#004282;fill-opacity:1;fill-rule:nonzero;stroke:none" transform="translate(168.195 262.942)"/><path d="m0 0-.281-4.544h-1.48v3.827q0 .404-.334.404h-3.392V.86h4.709Q.054.86 0 0m4.245-3.593H2.7v-5.753H.961v2.821q-.518-.56-2.182-.694-.507-.044-2.354-.045h-2.582v1.176h1.674v3.569h1.61v-3.569q1.761-.001 2.516.101Q.961-5.821.961-4.879v5.997H2.7V-2.43h1.545z" style="fill:#004282;fill-opacity:1;fill-rule:nonzero;stroke:none" transform="translate(178.359 270.419)"/><path d="M0 0h-1.674v-2.339h-1.739v6.11h1.739V1.176H0Zm-6.21.28q0 .526-.281.845a.93.93 0 0 1-.735.319q-.464 0-.74-.319T-8.241.28q0-.526.275-.844.276-.32.74-.32.454 0 .735.32.28.318.281.844m4.579-3.917-.183-3.054h-1.588v2.327q0 .357-.324.358h-4.915v1.175h6.308q.756 0 .702-.806m-2.495 5.293h-.864q.378-.58.378-1.376 0-1.109-.702-1.751-.702-.643-1.912-.643t-1.917.643q-.708.642-.708 1.751 0 .795.389 1.376h-.929v1.175H-8.1V4.13h1.738V2.831h2.236z" style="fill:#004282;fill-opacity:1;fill-rule:nonzero;stroke:none" transform="translate(193.231 267.766)"/><path d="M203.039 261.073h-1.521v10.464h1.521zm-3.543 6.29v1.757h-.809q.064-.413.065-.872a6 6 0 0 0-.065-.885zm-2.29.885q0 .894-.308 1.387t-.847.493-.849-.493q-.307-.493-.306-1.387 0-.896.306-1.389.308-.492.849-.493.539 0 .847.493t.308 1.389m3.759-7.052h-1.469v4.981h-1.242q-.712-1.197-2.203-1.198-1.254 0-1.983.874-.728.872-.729 2.395 0 1.522.729 2.389t1.983.867q1.5 0 2.215-1.209h1.23v1.243h1.469z" style="fill:#004282;fill-opacity:1;fill-rule:nonzero;stroke:none"/><path d="m0 0-.378-1.074a6.1 6.1 0 0 0-2.257.694Q-3.715.19-4.137.895q-.356-.716-1.404-1.27-1.046-.554-2.365-.699l-.4 1.086q1.598.266 2.441.995.8.695.799 1.701v.123h1.783v-.123q-.001-.996.838-1.712Q-1.609.281 0 0m.768-2.618h-4.073v-.784h2.203q.626 0 .594-.616L-.637-6.11h-5.412v-.404q0-.2.206-.2h5.497v-1.098h-6.47q-.54 0-.761.225-.222.224-.222.704v1.824h5.541v.37q0 .19-.194.19h-5.347v1.097h2.766v.784h-4.072v1.106H.768z" style="fill:#004282;fill-opacity:1;fill-rule:nonzero;stroke:none" transform="translate(213.246 268.751)"/><path d="M0 0v1.287h-1.458a3.3 3.3 0 0 0 .064-.66A3.4 3.4 0 0 0-1.447 0Zm.022-4.924q0 .572-.367.935-.368.363-.973.363-.606 0-.978-.363-.373-.363-.373-.935 0-.571.373-.929.372-.358.978-.358.605 0 .973.358.367.358.367.929m1.696 0q-.001-1.13-.8-1.824-.831-.716-2.236-.716t-2.219.705q-.816.705-.816 1.835t.816 1.841q.814.712 2.219.711 1.405 0 2.236-.728.799-.694.8-1.824M-3.035.627q0 .65-.351 1.051-.351.404-.902.403-.562.001-.913-.403-.351-.402-.351-1.051 0-.66.351-1.063.35-.403.913-.403.55 0 .902.403.351.403.351 1.063m4.774-2.966H0v1.198h-1.978q-.797-.996-2.31-.996-1.296 0-2.102.749-.804.75-.803 2.015-.001 1.253.803 2.003.806.75 2.102.749 1.467 0 2.279-.951H0v.885h1.739z" style="fill:#004282;fill-opacity:1;fill-rule:nonzero;stroke:none" transform="translate(222.136 268.225)"/><path d="M0 0h-1.534v6.177h-.983V.123h-1.479v10.34h1.479V7.352h.983v3.111H0Zm-4.212 3.346-.853-.873q-.572.403-1.114 1.248-.539.843-.713 1.606-.14-.784-.673-1.6a5.2 5.2 0 0 0-1.227-1.332l-.864.861q1.113 1.008 1.534 2.306.367 1.152.367 3.189v.369h-1.437v1.175h4.537V9.12h-1.438v-.369q0-1.914.423-3.178a5 5 0 0 1 1.458-2.227" style="fill:#004282;fill-opacity:1;fill-rule:nonzero;stroke:none" transform="translate(234.794 261.074)"/><path d="M0 0h-1.674v-2.339h-1.738v6.11h1.738V1.176H0Zm-6.209.28q-.001.526-.281.845a.94.94 0 0 1-.736.319q-.463 0-.739-.319T-8.24.28t.275-.844q.276-.32.739-.32.455 0 .736.32.28.318.281.844m4.578-3.917-.182-3.054h-1.588v2.327q0 .357-.325.358h-4.915v1.175h6.309q.756 0 .701-.806m-2.494 5.293h-.865q.38-.58.379-1.376 0-1.109-.702-1.751-.703-.643-1.913-.643t-1.917.643q-.708.642-.708 1.751 0 .795.39 1.376h-.929v1.175h2.29V4.13h1.739V2.831h2.236z" style="fill:#004282;fill-opacity:1;fill-rule:nonzero;stroke:none" transform="translate(246.156 267.766)"/><path d="m0 0-.313-4.734h-1.555v4.04q0 .403-.335.403h-5.282V.884h6.686Q.064.884 0 0m1.167-7.33h-9.872v1.175h1.911v3.492h1.577v-3.492h.875v3.492h1.577v-3.492h3.932z" style="fill:#004282;fill-opacity:1;fill-rule:nonzero;stroke:none" transform="translate(255.186 270.419)"/></g><path d="M146.34 284.395q-2.608 0-3.435-3.172l-1.18-4.534h2.36l1.176 4.534q.285 1.05 1.215 1.05h2.712q.909 0 1.203-1.062c.195-.71.601-2.014.696-2.374h-4.931l-.506-2.164h6.003l.973-4.021h2.364l-2.223 8.575q-.81 3.168-3.435 3.168z" style="fill:url(#d);stroke:none" transform="matrix(6.791 0 0 -6.791 -896.378 2031.902)"/><path d="M135.42 278.81q-1.33-.001-2.378-.932-1.048-.934-1.047-2.25v-.588q-.001-1.399 1.01-2.28t2.425-.882h6.992q1.213 0 1.213-1.035v-.597q.001-.439-.383-.747a1.3 1.3 0 0 0-.826-.31h-10.431v-2.121h10.437q1.33 0 2.379.92 1.046.919 1.047 2.253v.607q0 1.395-1.03 2.302-.992.85-2.406.851h-6.992q-1.213 0-1.213 1.042v.582q0 .42.383.742.382.321.826.322h8.659l.555 2.121z" style="fill:url(#e);stroke:none" transform="matrix(6.791 0 0 -6.791 -896.378 2031.902)"/></svg>